<?xml version="1.0" encoding="UTF-8"?>
<svg width="1440px" height="653px" viewBox="0 0 1440 653" version="1.1" xmlns="http://www.w3.org/2000/svg" xmlns:xlink="http://www.w3.org/1999/xlink">
    <!-- Generator: Sketch 54.1 (76490) - https://sketchapp.com -->
    <title>Group 2</title>
    <desc>Created with Sketch.</desc>
    <defs>
        <rect id="path-1" x="0" y="0" width="757" height="538"></rect>
    </defs>
    <g id="Halo" stroke="none" stroke-width="1" fill="none" fill-rule="evenodd">
        <g id="Desktop-" transform="translate(0.000000, -61.000000)">
            <g id="Group-2" transform="translate(0.000000, 61.000000)">
                <g id="Atoms-/-Colors-/-Gray-#3" fill="#F2F5F7">
                    <rect id="Atoms-/-Colors-/-Black" x="0" y="0" width="1440" height="653"></rect>
                </g>
                <g id="Background-image" opacity="0.400000006" transform="translate(683.000000, 115.000000)">
                    <mask id="mask-2" fill="white">
                        <use xlink:href="#path-1"></use>
                    </mask>
                    <g id="Mask"></g>
                    <g id="Atoms-/-Media-/-image-/-Background" mask="url(#mask-2)" fill="#C2D1D9" fill-rule="nonzero">
                        <g transform="translate(-10.000000, 47.000000)" id="Combined-Shape">
                            <path d="M308.528134,156 C351.540883,156 386.528134,121.012749 386.528134,78.0140061 C386.528134,34.9872509 351.540883,0 308.528134,0 C265.515385,0 230.528134,34.9872509 230.528134,78 C230.528134,121.012749 265.515385,156 308.528134,156 Z M308.528134,28.0122105 C336.092149,28.0122105 358.515924,50.449991 358.515924,78 C358.515924,105.550009 336.092149,127.98779 308.528134,127.98779 C280.964119,127.98779 258.540345,105.564015 258.540345,78.0140061 C258.540345,50.4639971 280.964119,28.0122105 308.528134,28.0122105 Z M13.9647262,535.127626 C10.0985426,535.127626 6.24631629,533.536533 3.48276267,530.396218 C-1.611667,524.604081 -1.05337334,515.783285 4.7389234,510.688996 L425.779139,124.444298 C431.306246,119.587278 439.652736,119.85246 444.872782,125.058404 L511.072453,191.256247 L647.770656,41.5399796 C650.26902,38.8044162 653.758355,37.1714524 657.457051,37.0039689 C661.127832,36.9202272 664.770698,38.1623963 667.506337,40.6606914 L834.994435,194.187207 C840.689031,199.393152 841.065879,208.227905 835.85979,213.908386 C830.653702,219.588867 821.818705,219.979662 816.138067,214.773718 L658.964444,70.6960607 L530.822091,211.019296 L597.915032,278.110384 C603.372352,283.567554 603.372352,292.38835 597.915032,297.84552 C592.457711,303.302689 583.636671,303.302689 578.179351,297.84552 L434.390818,154.074916 L23.1765716,531.652344 C20.5246767,533.983155 17.2307441,535.127626 13.9647262,535.127626 Z"></path>
                        </g>
                    </g>
                </g>
            </g>
        </g>
    </g>
</svg>